<?xml version="1.0" standalone="no"?>
<!DOCTYPE svg PUBLIC "-//W3C//DTD SVG 20010904//EN"
 "http://www.w3.org/TR/2001/REC-SVG-20010904/DTD/svg10.dtd">
<svg version="1.0" xmlns="http://www.w3.org/2000/svg"
 width="2560.000000pt" height="1578.000000pt" viewBox="0 0 2560.000000 1578.000000"
 preserveAspectRatio="xMidYMid meet">

<g transform="translate(0.000000,1578.000000) scale(0.100000,-0.100000)"
fill="#000000" stroke="none">
<path d="M0 7890 l0 -7890 12800 0 12800 0 0 7890 0 7890 -12800 0 -12800 0 0
-7890z m4287 2929 c167 -22 338 -76 496 -155 166 -84 268 -172 361 -313 71
-108 114 -205 146 -331 51 -200 52 -231 60 -1265 5 -700 10 -983 19 -1015 39
-148 79 -240 169 -388 94 -155 101 -205 37 -282 -65 -78 -460 -481 -496 -505
-41 -29 -84 -32 -119 -9 -81 54 -202 203 -294 361 -35 61 -70 109 -80 111 -11
2 -67 -48 -164 -146 -234 -237 -369 -310 -662 -357 -345 -55 -662 40 -871 261
-131 140 -211 310 -262 559 -19 96 -22 141 -22 355 1 216 3 257 23 343 91 408
323 717 665 888 205 103 482 170 931 224 184 22 190 23 214 51 l25 28 -6 196
c-4 157 -10 210 -27 270 -61 214 -199 319 -421 320 -227 0 -388 -133 -469
-390 -58 -182 -71 -197 -169 -193 -71 4 -514 61 -562 74 -93 24 -119 82 -94
217 62 339 227 629 457 805 173 132 445 240 708 282 105 16 303 19 407 4z
m8385 -18 c278 -60 539 -192 668 -339 146 -166 239 -394 271 -667 8 -67 13
-401 16 -1015 3 -974 5 -1000 54 -1150 28 -86 75 -184 119 -250 67 -99 90
-154 90 -214 0 -55 -1 -57 -67 -128 -129 -139 -437 -453 -467 -475 -35 -26
-75 -29 -115 -8 -69 35 -232 241 -318 400 -49 89 -65 93 -124 28 -311 -342
-525 -454 -899 -470 -286 -12 -508 64 -690 234 -195 183 -306 456 -329 812
-41 630 207 1127 681 1367 220 111 448 167 931 228 108 14 205 30 216 36 28
14 35 76 28 249 -9 232 -47 362 -137 464 -63 72 -151 110 -266 115 -281 13
-448 -129 -539 -460 -8 -31 -27 -70 -41 -87 -24 -29 -30 -31 -95 -31 -39 0
-100 4 -137 10 -37 5 -154 21 -261 35 -202 27 -239 38 -263 83 -21 40 -13 137
20 267 66 253 156 425 305 582 90 94 176 159 297 222 171 90 338 145 529 176
124 21 396 13 523 -14z m-4712 -42 c121 -33 204 -83 301 -179 47 -47 105 -113
128 -147 46 -70 135 -247 153 -305 6 -21 14 -38 18 -38 4 0 26 44 49 98 142
333 401 546 723 593 424 62 830 -232 943 -683 51 -205 50 -164 50 -1853 0
-1575 0 -1580 -21 -1615 -37 -64 -42 -65 -414 -65 -369 0 -366 0 -407 62 -17
25 -18 112 -24 1413 -4 974 -9 1402 -17 1441 -35 172 -101 264 -219 309 -84
32 -225 26 -299 -13 -132 -68 -225 -212 -265 -413 -9 -43 -14 -425 -18 -1379
-6 -1308 -6 -1320 -27 -1355 -11 -19 -31 -41 -45 -47 -32 -17 -681 -18 -728
-2 -18 6 -39 24 -49 43 -16 29 -17 129 -23 1376 -6 1483 -3 1418 -69 1590 -36
93 -92 160 -164 198 -46 25 -61 27 -161 27 -100 0 -115 -2 -160 -27 -137 -72
-221 -236 -254 -498 -7 -54 -13 -553 -17 -1355 -5 -1002 -9 -1277 -20 -1302
-7 -18 -27 -40 -46 -50 -30 -16 -63 -18 -368 -18 -377 0 -380 1 -415 70 -20
40 -20 60 -20 2000 0 1808 1 1963 17 1997 33 73 32 73 398 73 349 0 354 -1
388 -52 15 -23 18 -62 22 -283 4 -209 7 -250 17 -228 43 96 111 221 153 282
47 67 143 170 200 215 83 63 229 121 355 141 88 13 248 4 335 -21z m10746 16
c335 -59 635 -267 836 -581 123 -193 280 -609 347 -926 142 -664 56 -1358
-244 -1983 -191 -397 -495 -667 -870 -772 -123 -34 -361 -43 -486 -19 -175 35
-330 102 -472 204 -108 77 -270 248 -350 368 -267 402 -412 1014 -394 1668 20
722 210 1309 537 1659 185 197 435 337 683 382 101 18 306 18 413 0z m3609
-15 c143 -37 254 -99 352 -197 171 -172 265 -398 309 -738 17 -129 18 -263 21
-1647 4 -1663 8 -1558 -59 -1595 -30 -16 -65 -18 -343 -21 -346 -2 -393 3
-429 51 l-21 28 -6 1317 c-5 1193 -7 1327 -23 1422 -40 240 -109 366 -231 422
-40 19 -67 23 -140 23 -79 0 -96 -4 -144 -28 -141 -74 -244 -258 -299 -530
-14 -73 -17 -227 -21 -1342 -6 -1181 -7 -1262 -24 -1292 -37 -68 -34 -68 -407
-68 -378 0 -388 2 -421 66 -19 37 -19 76 -19 2004 0 2143 -4 2013 56 2052 26
16 55 18 350 18 352 0 360 -1 392 -60 14 -25 18 -75 22 -325 l5 -295 22 45
c11 25 35 79 52 121 71 173 182 333 299 432 68 57 215 131 292 146 30 6 64 13
75 15 47 11 263 -4 340 -24z m-5667 -60 c47 -32 53 -64 57 -318 4 -251 -3
-312 -44 -423 -12 -30 -116 -217 -232 -415 -240 -408 -632 -1077 -816 -1390
-67 -117 -123 -216 -123 -221 0 -6 66 -12 158 -16 338 -12 598 -77 866 -215
126 -65 195 -123 228 -190 22 -46 23 -55 26 -381 3 -292 1 -340 -13 -378 -36
-93 -86 -96 -247 -13 -671 345 -1321 344 -1978 -2 -131 -69 -174 -77 -213 -39
-14 12 -30 42 -36 66 -13 51 -14 460 -2 675 10 174 29 237 111 378 31 53 206
354 390 667 183 314 395 676 470 805 75 129 181 310 234 402 54 92 95 172 91
178 -4 7 -179 10 -538 11 -385 0 -542 3 -567 12 -21 8 -42 25 -55 47 -19 33
-20 54 -23 330 -4 375 3 415 84 440 16 5 506 8 1089 7 921 -2 1063 -4 1083
-17z m-342 -4480 c82 -12 197 -36 261 -56 253 -76 286 -116 287 -344 5 -811
-254 -1604 -709 -2170 -156 -194 -179 -213 -235 -190 -62 26 -76 91 -39 182
67 165 270 844 313 1043 46 215 56 271 72 384 20 143 15 308 -11 383 -19 53
-74 109 -132 134 -21 8 -90 27 -153 41 -104 23 -136 26 -335 25 -236 0 -528
-23 -845 -68 -96 -13 -189 -24 -206 -24 -36 0 -61 24 -70 68 -14 68 18 114
144 210 294 224 664 354 1117 395 138 12 404 6 541 -13z m-10731 -110 c8 0 83
-46 167 -102 1219 -808 2513 -1310 3918 -1518 223 -33 268 -39 425 -55 421
-41 1050 -53 1435 -27 892 62 1775 255 2625 575 260 98 473 190 782 337 173
83 205 94 255 87 46 -6 102 -46 123 -88 21 -41 21 -128 0 -173 -27 -57 -236
-241 -445 -391 -449 -323 -1024 -633 -1510 -815 -518 -193 -924 -303 -1435
-388 -472 -79 -985 -115 -1341 -94 -958 56 -1709 234 -2564 608 -97 42 -458
225 -540 274 -30 17 -84 48 -120 68 -264 145 -777 506 -1050 738 -14 12 -63
54 -110 94 -144 122 -277 247 -460 428 -273 270 -301 310 -265 386 18 38 60
69 83 61 8 -3 20 -5 27 -5z"/>
<path d="M4263 8569 c-301 -27 -507 -134 -635 -328 -109 -167 -141 -406 -83
-631 41 -159 124 -269 232 -310 87 -33 207 -26 294 17 82 41 173 132 229 228
120 211 160 411 160 807 0 251 14 236 -197 217z"/>
<path d="M12550 8569 c-124 -10 -279 -47 -367 -88 -260 -122 -383 -335 -383
-666 0 -351 175 -568 429 -534 239 33 422 282 486 659 19 108 32 597 17 618
-12 18 -62 21 -182 11z"/>
<path d="M18380 9974 c-208 -76 -310 -303 -362 -804 -25 -245 -13 -874 23
-1185 41 -352 153 -584 322 -665 147 -71 287 -37 409 98 105 118 171 317 210
632 18 145 18 969 0 1140 -49 470 -137 687 -312 769 -71 33 -219 40 -290 15z"/>
</g>
</svg>
